<?xml version="1.0" encoding="UTF-8" standalone="no"?>
<!DOCTYPE svg PUBLIC "-//W3C//DTD SVG 1.1//EN" "http://www.w3.org/Graphics/SVG/1.1/DTD/svg11.dtd">
<svg width="100%" height="100%" viewBox="0 0 1778 1080" version="1.1" xmlns="http://www.w3.org/2000/svg" xmlns:xlink="http://www.w3.org/1999/xlink" xml:space="preserve" xmlns:serif="http://www.serif.com/" style="fill-rule:evenodd;clip-rule:evenodd;stroke-linejoin:round;stroke-miterlimit:2;">
    <g transform="matrix(1,0,0,1,-5958,0)">
        <g id="Artboard4" transform="matrix(1,0,0,1,-0.183542,0)">
            <rect x="5958.18" y="0" width="1777.85" height="1080" style="fill:none;"/>
            <g transform="matrix(1,0,0,1,3972,72.1488)">
                <g transform="matrix(2.79274,0,0,2.79274,-15445.3,-18.1769)">
                    <text x="6354.19px" y="231.066px" style="font-family:'Caudex', serif;font-size:50px;fill:rgb(254,255,254);">O<tspan x="6399px 6438.8px 6474.85px " y="231.066px 231.066px 231.066px ">CEA</tspan></text>
                    <text x="6519.24px" y="231.066px" style="font-family:'Caudex', serif;font-size:50px;fill:rgb(254,255,254);">N</text>
                    <text x="6569.37px" y="231.066px" style="font-family:'Caudex', serif;font-size:50px;fill:rgb(254,255,254);">G<tspan x="6613.03px 6651.93px 6696.32px 6736.12px " y="231.066px 231.066px 231.066px 231.066px ">RACE</tspan></text>
                </g>
                <g transform="matrix(0.882655,0,0,0.882655,-3095.37,508.384)">
                    <text x="6354.19px" y="231.066px" style="font-family:'Mulish-Regular', 'Mulish';font-size:50px;fill:rgb(254,255,254);">S<tspan x="6414.35px 6472.05px 6537.8px 6579.85px 6643.44px 6701.35px 6760.74px 6816.15px 6881.65px 6947.15px 7010.19px 7075.94px 7142.3px " y="231.066px 231.066px 231.066px 231.066px 231.066px 231.066px 231.066px 231.066px 231.066px 231.066px 231.066px 231.066px 231.066px ">EA RESTAURANT</tspan></text>
                </g>
                <g transform="matrix(0.420824,0,0,0.408426,117.666,374.04)">
                    <path d="M6357.11,137.37C6356.95,137.344 6356.78,137.405 6356.68,137.532C6356.57,137.659 6356.53,137.834 6356.58,137.995C6356.58,137.995 6356.58,137.995 6356.58,137.995C6356.58,137.995 6360.25,150.518 6362.26,154.017C6363.49,156.154 6366.13,158.246 6366.13,158.246C6366.13,158.246 6366.13,158.246 6366.13,158.246C6366.23,158.325 6366.35,158.36 6366.48,158.343C6401.68,153.573 6496.99,143.451 6549.8,143.451C6603.52,143.451 6702.37,153.656 6738.46,158.395C6738.57,158.409 6738.69,158.382 6738.78,158.318C6738.78,158.318 6738.78,158.318 6738.78,158.317C6738.78,158.317 6741.74,156.293 6742.73,153.964C6744.3,150.277 6748.37,138.035 6748.37,138.035C6748.37,138.035 6748.37,138.035 6748.37,138.035C6748.43,137.872 6748.39,137.692 6748.28,137.56C6748.18,137.429 6748.01,137.365 6747.85,137.393C6740.99,138.552 6732.04,140.047 6719.77,138.014C6710.6,136.495 6700.07,134.741 6688.71,132.909C6643.97,125.692 6586.49,117.272 6549.8,117.272C6514.15,117.272 6459.38,125.45 6416.25,132.594C6404.92,134.469 6394.53,137.085 6385.37,137.589C6373.08,138.265 6366.9,138.956 6357.11,137.37Z" style="fill:rgb(254,255,254);"/>
                </g>
                <g transform="matrix(0.308483,0,0,0.408426,853.773,394.782)">
                    <path d="M6351.87,138.944C6351.61,138.944 6351.37,139.064 6351.27,139.248C6351.17,139.431 6351.23,139.643 6351.42,139.782C6358.65,145.163 6366.38,152.277 6374.56,157.029C6374.7,157.114 6374.89,157.148 6375.07,157.123C6414.52,151.567 6502.49,142.069 6552.5,142.069C6602.51,142.069 6690.48,151.567 6729.94,157.123C6730.12,157.149 6730.3,157.115 6730.45,157.03C6738.63,152.281 6746.36,145.159 6753.59,139.783C6753.79,139.632 6753.84,139.4 6753.71,139.209C6753.58,139.019 6753.3,138.914 6753.02,138.952C6743.61,140.215 6739.57,139.416 6727.96,138.788C6720.66,138.393 6712.44,136.685 6703.24,135.318C6657.57,128.531 6592.99,119.963 6552.5,119.963C6512.02,119.963 6447.44,128.53 6401.76,135.318C6392.57,136.685 6384.14,138.393 6376.83,138.788C6365.18,139.418 6363.56,138.944 6351.87,138.944L6351.87,138.944Z" style="fill:rgb(254,255,254);"/>
                </g>
                <g transform="matrix(0.145493,0,0,-0.408426,1921.76,531.693)">
                    <path d="M6358.03,162.042L6357.51,162.013L6356.68,161.834C6356.65,161.876 6356.51,161.532 6356.49,161.474C6356.44,161.338 6355.4,151.701 6362.96,147.492C6370.52,143.284 6382.59,140.364 6396.36,139.412C6442.96,135.97 6510.67,131.517 6552.5,131.517C6594.53,131.517 6662.13,135.965 6708.64,139.453C6722.37,140.404 6734.41,143.318 6741.94,147.516C6749.47,151.715 6751.85,156.831 6748.5,161.671C6748.5,161.671 6748.42,161.762 6748.22,161.815C6748.12,161.84 6747.63,161.966 6747.52,161.993C6747.15,162.09 6746.6,162.008 6746.94,162.037C6746.94,162.037 6617.34,150.569 6552.5,150.569C6487.99,150.569 6358.03,162.042 6358.03,162.042Z" style="fill:rgb(254,255,254);"/>
                </g>
                <g transform="matrix(0.415813,0,0,0.415813,-645.404,1028.18)">
                    <path d="M8669.63,-1585.56L8669.67,-1581.24C8669.67,-1552.14 8667.4,-1523.88 8663.11,-1496.94L8573.88,-1492.5C8565.16,-1492.06 8557.72,-1497.63 8555.08,-1505.95L8555.02,-1506.13C8552.56,-1514.69 8556.37,-1523.81 8564.2,-1528.06C8564.2,-1528.06 8564.21,-1528.06 8564.21,-1528.06C8594.1,-1544.54 8654.47,-1577.33 8669.63,-1585.56ZM8378.46,-1505.61C8375.85,-1497.54 8368.15,-1492.2 8359.66,-1492.62C8359.65,-1492.62 8359.65,-1492.62 8359.64,-1492.62C8331.84,-1493.88 8280.63,-1496.41 8270.05,-1496.94C8265.76,-1523.88 8263.49,-1552.14 8263.49,-1581.24L8263.53,-1585.6L8369.48,-1528.21C8377.42,-1523.91 8381.98,-1514.54 8378.64,-1506.15C8378.57,-1505.96 8378.5,-1505.77 8378.46,-1505.61ZM8249.86,-1494.64L8249.88,-1494.62L8250.2,-1494.34L8250.18,-1494.34L8249.88,-1494.6L8249.88,-1494.55L8249.88,-1494.6L8249.86,-1494.62C8249.86,-1494.62 8249.91,-1494.32 8249.91,-1494.32L8249.9,-1494.4L8249.91,-1494.3C8249.91,-1494.3 8251.2,-1486.39 8251.2,-1486.39L8253.03,-1476.39L8253.69,-1473.18C8253.98,-1471.75 8255.26,-1470.74 8256.72,-1470.78C8256.72,-1470.78 8389.24,-1474.38 8389.24,-1474.38C8390.9,-1474.42 8392.2,-1475.8 8392.16,-1477.46C8392.16,-1477.46 8392.11,-1479.51 8392.11,-1479.51C8392.11,-1482.3 8392.27,-1485.05 8392.58,-1487.75L8392.6,-1487.9C8393.65,-1497.4 8396.51,-1506.35 8400.82,-1514.42L8400.78,-1514.35L8400.92,-1514.6C8400.92,-1514.6 8400.92,-1514.61 8400.92,-1514.61C8402.54,-1517.62 8404.35,-1520.5 8406.35,-1523.24L8406.45,-1523.37C8411.82,-1530.72 8418.5,-1537.04 8426.16,-1541.99L8426.34,-1542.11C8429.17,-1543.94 8432.12,-1545.57 8435.2,-1547L8435.35,-1547.07C8443.31,-1550.77 8452.04,-1553.09 8461.23,-1553.74L8461.42,-1553.75L8461.4,-1553.75L8461.44,-1553.75L8461.42,-1553.75L8461.49,-1553.75C8463.17,-1553.89 8464.87,-1553.95 8466.58,-1553.95C8468.24,-1553.95 8469.89,-1553.89 8471.52,-1553.77L8471.58,-1553.76L8471.59,-1553.76L8471.55,-1553.76L8471.57,-1553.76L8471.57,-1553.76L8471.72,-1553.75C8480.91,-1553.14 8489.65,-1550.84 8497.62,-1547.16L8498.63,-1546.94C8498.63,-1546.94 8497.63,-1547.16 8497.63,-1547.16L8498.79,-1546.85L8497.88,-1547.04L8497.82,-1547.07C8500.9,-1545.65 8503.86,-1544.02 8506.68,-1542.2L8507.99,-1541.81C8507.99,-1541.81 8506.69,-1542.19 8506.69,-1542.19L8508.08,-1541.74L8506.91,-1542.06L8506.83,-1542.1C8514.5,-1537.18 8521.2,-1530.87 8526.58,-1523.54C8526.58,-1523.54 8526.59,-1523.54 8526.59,-1523.54L8526.76,-1523.3L8526.72,-1523.36C8528.72,-1520.63 8530.54,-1517.76 8532.16,-1514.76L8532.24,-1514.6C8536.58,-1506.52 8539.46,-1497.54 8540.55,-1488.01L8540.55,-1488.01L8540.56,-1487.88C8540.89,-1485.13 8541.05,-1482.33 8541.05,-1479.49L8541,-1477.46C8540.96,-1475.8 8542.26,-1474.42 8543.92,-1474.38C8543.92,-1474.38 8676.45,-1470.78 8676.45,-1470.78C8677.91,-1470.74 8679.18,-1471.75 8679.47,-1473.18L8680.14,-1476.44L8681.97,-1486.45L8683.25,-1494.31C8687.66,-1522.13 8689.99,-1551.26 8689.99,-1581.26C8689.99,-1586.89 8689.91,-1592.5 8689.72,-1598.08L8689.71,-1598.34C8689.52,-1605.44 8689.18,-1612.48 8688.69,-1619.46L8688.67,-1619.79C8684.8,-1677.37 8672.28,-1730.79 8653.3,-1776.66L8653.19,-1776.93C8650,-1784.62 8646.63,-1792.09 8643.09,-1799.33L8642.93,-1799.67C8630.64,-1824.86 8616.26,-1847.27 8600.26,-1866.25C8562.84,-1910.64 8516.49,-1936.48 8466.58,-1936.48C8416.67,-1936.48 8370.32,-1910.64 8332.9,-1866.25C8316.96,-1847.34 8302.64,-1825.03 8290.38,-1799.97L8290.38,-1799.97L8290.37,-1799.95L8290.37,-1799.95C8290.37,-1799.95 8290.24,-1799.69 8290.24,-1799.69C8290.24,-1799.69 8289.51,-1798.19 8290.24,-1799.68C8290.24,-1799.68 8290.24,-1799.68 8290.24,-1799.68C8286.68,-1792.45 8283.31,-1784.98 8280.12,-1777.29L8279.97,-1776.93C8260.94,-1731.01 8248.38,-1677.47 8244.49,-1619.77C8244.01,-1612.79 8243.67,-1605.77 8243.46,-1598.7L8244.04,-1598.1L8244.04,-1598.08L8245.79,-1596.28L8245.79,-1596.25L8245.58,-1596.34C8244.95,-1597.1 8244.17,-1597.97 8244.05,-1597.82L8244.05,-1597.75L8244.03,-1597.77L8244.03,-1597.79C8244.03,-1597.8 8244.04,-1597.81 8244.04,-1597.81L8244.04,-1598.08L8243.46,-1598.68C8243.46,-1598.68 8243.45,-1598.38 8243.45,-1598.38L8244.03,-1597.77L8244.03,-1597.77C8244.01,-1597.26 8244.13,-1596.86 8244.32,-1596.54L8244.68,-1596.38L8244.7,-1596.37L8244.33,-1596.53L8244.32,-1596.54L8244.13,-1596.62L8244.15,-1596.6L8244.14,-1596.6L8244.12,-1596.62C8243.67,-1597.09 8243.43,-1597.72 8243.45,-1598.37C8243.26,-1592.7 8243.17,-1587 8243.17,-1581.26C8243.17,-1551.38 8245.49,-1522.36 8249.86,-1494.64L8249.88,-1494.62L8249.86,-1494.64ZM8249.88,-1494.62L8250.2,-1494.34L8249.88,-1494.62ZM8249.89,-1494.49L8249.89,-1494.45L8249.88,-1494.53L8249.89,-1494.49ZM8402.83,-1545.69C8396.72,-1539.89 8387.53,-1538.89 8380.34,-1543.22C8380.34,-1543.22 8380.33,-1543.22 8380.33,-1543.22C8348.11,-1562.47 8274.82,-1606.61 8264.4,-1612.88L8264.4,-1612.88C8267.32,-1664.02 8277.27,-1711.87 8292.71,-1753.82C8308.63,-1727.89 8379.39,-1612.67 8406,-1569.36C8410.7,-1561.69 8408.96,-1552.27 8402.83,-1545.69ZM8530.76,-1546.07L8530.76,-1546.07C8536.94,-1540.17 8546.33,-1539.16 8553.65,-1543.57C8553.65,-1543.57 8553.65,-1543.57 8553.65,-1543.57C8586.16,-1563.13 8658.42,-1606.67 8668.76,-1612.9C8665.84,-1664.04 8655.89,-1711.88 8640.45,-1753.82L8527.64,-1570.14C8522.88,-1562.38 8524.18,-1552.36 8530.76,-1546.07ZM8506.91,-1542.06C8507.09,-1541.95 8507.28,-1541.87 8507.49,-1541.81C8507.69,-1541.75 8507.9,-1541.73 8508.11,-1541.72L8506.91,-1542.06ZM8497.88,-1547.04C8498.03,-1546.98 8498.18,-1546.93 8498.34,-1546.9C8498.49,-1546.86 8498.65,-1546.85 8498.81,-1546.85L8497.88,-1547.04ZM8461.34,-1553.75L8461.35,-1553.75L8461.34,-1553.75ZM8452.73,-1915.33C8453.13,-1887.99 8456.62,-1654.41 8457.48,-1586.93C8457.48,-1586.93 8457.48,-1586.92 8457.48,-1586.92C8457.61,-1578.27 8451.83,-1570.64 8443.46,-1568.42L8443.41,-1568.4C8435.1,-1566.29 8426.44,-1569.79 8422.2,-1577.25C8422.2,-1577.25 8304.93,-1783.36 8304.93,-1783.36C8317.2,-1809.95 8331.87,-1833.5 8348.44,-1853.16C8378.12,-1888.37 8413.83,-1911 8452.73,-1915.33ZM8628.23,-1783.36C8620.36,-1769.53 8538.54,-1625.74 8510.96,-1577.64C8510.96,-1577.63 8510.96,-1577.63 8510.96,-1577.63C8506.7,-1570.14 8497.96,-1566.43 8489.61,-1568.55L8489.44,-1568.59C8481.03,-1570.54 8475.39,-1578.18 8475.51,-1586.81C8475.51,-1586.81 8480.43,-1915.33 8480.43,-1915.33L8480.43,-1915.33C8519.33,-1911 8555.04,-1888.37 8584.72,-1853.16C8601.29,-1833.5 8615.96,-1809.95 8628.23,-1783.36ZM8245.78,-1595.97L8245.33,-1596.43L8244.35,-1596.83L8244.34,-1596.85L8244.15,-1596.93L8244.18,-1596.9L8244.35,-1596.83C8244.47,-1596.64 8244.61,-1596.49 8244.76,-1596.35L8245.78,-1595.92L8245.78,-1595.97ZM8245.79,-1596.43C8245.09,-1597.29 8244.05,-1598.48 8244.04,-1598.1L8244.04,-1598.1L8245.79,-1596.29L8245.79,-1596.43ZM8245.33,-1596.43L8245.6,-1596.32L8245.58,-1596.34L8245.31,-1596.45L8245.33,-1596.43ZM8244.68,-1596.38L8244.18,-1596.9L8244.17,-1596.91L8244.68,-1596.38Z" style="fill:rgb(254,255,254);"/>
                </g>
                <g transform="matrix(1.41144,0,0,1.41144,-5919.92,89.2623)">
                    <text x="6354.19px" y="231.066px" style="font-family:'Mulish-Regular', 'Mulish';font-size:30.909px;fill:rgb(254,255,254);">2<tspan x="6375.21px 6396.23px 6417.25px " y="231.066px 231.066px 231.066px ">025</tspan></text>
                </g>
                <g transform="matrix(1.41144,0,0,1.41144,-6388.13,89.2623)">
                    <text x="6354.19px" y="231.066px" style="font-family:'Mulish-Regular', 'Mulish';font-size:30.909px;fill:rgb(254,255,254);">E<tspan x="6374.53px 6395.8px 6416.94px " y="231.066px 231.066px 231.066px ">STD</tspan></text>
                </g>
            </g>
        </g>
    </g>
</svg>
