<svg width="51" height="259" viewBox="0 0 51 259" fill="none" xmlns="http://www.w3.org/2000/svg">
<path d="M18 26.0832L23 31.2128L33 20.9536M48 26.0832C48 38.8317 37.9264 49.1663 25.5 49.1663C13.0736 49.1663 3 38.8317 3 26.0832C3 13.3347 13.0736 3 25.5 3C37.9264 3 48 13.3347 48 26.0832Z" stroke="#CB965D" stroke-width="6" stroke-linecap="round" stroke-linejoin="round"/>
<path d="M18 94.82L23 99.9496L33 89.6904M48 94.82C48 107.568 37.9264 117.903 25.5 117.903C13.0736 117.903 3 107.568 3 94.82C3 82.0715 13.0736 71.7368 25.5 71.7368C37.9264 71.7368 48 82.0715 48 94.82Z" stroke="#CB965D" stroke-width="6" stroke-linecap="round" stroke-linejoin="round"/>
<path d="M18 163.556L23 168.686L33 158.427M48 163.556C48 176.305 37.9264 186.639 25.5 186.639C13.0736 186.639 3 176.305 3 163.556C3 150.808 13.0736 140.473 25.5 140.473C37.9264 140.473 48 150.808 48 163.556Z" stroke="#CB965D" stroke-width="6" stroke-linecap="round" stroke-linejoin="round"/>
<path d="M18 232.293L23 237.422L33 227.163M48 232.293C48 245.041 37.9264 255.376 25.5 255.376C13.0736 255.376 3 245.041 3 232.293C3 219.544 13.0736 209.209 25.5 209.209C37.9264 209.209 48 219.544 48 232.293Z" stroke="#CB965D" stroke-width="6" stroke-linecap="round" stroke-linejoin="round"/>
</svg>
