<svg width="511" height="34" viewBox="0 0 511 34" fill="none" xmlns="http://www.w3.org/2000/svg">
<path d="M497.5 0.0138551C495.707 -0.0684356 493.916 0.216524 492.241 0.850493C490.567 1.48446 489.047 2.45347 487.777 3.69549C486.508 4.93751 485.517 6.42518 484.869 8.06327C484.221 9.70135 483.93 11.4538 484.014 13.2083C484.014 17.3646 487.386 21.4548 489.071 23.1042C490.757 24.7535 497.5 33 497.5 33C497.5 33 504.243 24.7535 505.929 23.1042C507.614 21.4548 510.986 17.3646 510.986 13.2083C511.07 11.4538 510.779 9.70135 510.131 8.06327C509.483 6.42518 508.492 4.93751 507.223 3.69549C505.953 2.45347 504.433 1.48446 502.759 0.850493C501.084 0.216524 499.293 -0.0684356 497.5 0.0138551ZM497.5 18.5686C496.416 18.5686 495.357 18.2542 494.456 17.6652C493.555 17.0762 492.853 16.239 492.438 15.2596C492.024 14.2801 491.915 13.2024 492.127 12.1626C492.338 11.1228 492.86 10.1677 493.626 9.41805C494.392 8.6684 495.368 8.15789 496.431 7.95106C497.494 7.74423 498.595 7.85038 499.597 8.25609C500.598 8.66179 501.453 9.34883 502.055 10.2303C502.657 11.1118 502.979 12.1482 502.979 13.2083C502.979 13.9122 502.837 14.6093 502.562 15.2596C502.286 15.9099 501.883 16.5008 501.374 16.9986C500.865 17.4963 500.261 17.8912 499.597 18.1605C498.932 18.4299 498.219 18.5686 497.5 18.5686Z" fill="#F5F5F5"/>
<path d="M109 2C100.163 2 93 9.18983 93 18.0588C93 25.5897 98.166 31.9091 105.135 33.6448V22.9663H101.836V18.0588H105.135V15.9442C105.135 10.4784 107.599 7.94496 112.946 7.94496C113.96 7.94496 115.709 8.14473 116.424 8.34386V12.7921C116.047 12.7523 115.391 12.7324 114.576 12.7324C111.953 12.7324 110.939 13.73 110.939 16.3231V18.0588H116.165L115.267 22.9663H110.939V34C118.861 33.0397 125 26.2693 125 18.0588C124.999 9.18983 117.836 2 109 2Z" fill="#F5F5F5"/>
<path d="M189 34L191.39 25.2691C189.915 22.7134 189.14 19.8163 189.142 16.8456C189.146 7.55792 196.704 0 205.99 0C210.496 0.00141667 214.727 1.75667 217.908 4.94133C221.089 8.126 222.84 12.359 222.838 16.8612C222.834 26.1503 215.276 33.7082 205.99 33.7082C203.171 33.7067 200.393 32.9998 197.932 31.6568L189 34ZM198.346 28.6068C200.72 30.0163 202.987 30.8607 205.984 30.8621C213.702 30.8621 219.99 24.5806 219.994 16.8583C219.997 9.1205 213.739 2.8475 205.996 2.84467C198.272 2.84467 191.989 9.12617 191.986 16.847C191.985 19.9991 192.909 22.3592 194.46 24.8285L193.045 29.9965L198.346 28.6068ZM214.477 20.8661C214.372 20.6904 214.092 20.5856 213.67 20.3745C213.249 20.1634 211.179 19.1448 210.793 19.0046C210.407 18.8643 210.127 18.7935 209.845 19.2157C209.564 19.6364 208.757 20.5856 208.512 20.8661C208.267 21.1466 208.02 21.182 207.599 20.9709C207.179 20.7598 205.821 20.3164 204.214 18.8813C202.963 17.765 202.117 16.3866 201.872 15.9644C201.627 15.5437 201.846 15.3156 202.056 15.1059C202.246 14.9175 202.477 14.6143 202.688 14.3678C202.902 14.1242 202.971 13.9485 203.113 13.6666C203.253 13.3861 203.184 13.1396 203.077 12.9285C202.971 12.7188 202.13 10.6462 201.78 9.80333C201.437 8.98308 201.09 9.09358 200.832 9.08083L200.024 9.06667C199.744 9.06667 199.288 9.1715 198.902 9.59367C198.517 10.0158 197.429 11.033 197.429 13.1056C197.429 15.1782 198.938 17.1799 199.148 17.4604C199.359 17.7409 202.115 21.9937 206.339 23.817C207.343 24.2505 208.128 24.5097 208.738 24.7038C209.747 25.024 210.665 24.9787 211.39 24.871C212.199 24.7506 213.881 23.8524 214.232 22.8692C214.584 21.8847 214.584 21.0417 214.477 20.8661Z" fill="#F5F5F5"/>
<path d="M308.763 1H303.37V22.7971C303.37 25.3942 301.296 27.5276 298.714 27.5276C296.133 27.5276 294.059 25.3942 294.059 22.7971C294.059 20.2464 296.087 18.1594 298.576 18.0667V12.5942C293.091 12.6869 288.666 17.1855 288.666 22.7971C288.666 28.4551 293.183 33 298.76 33C304.338 33 308.855 28.4087 308.855 22.7971V11.6203C310.883 13.1044 313.372 13.9855 315.999 14.0319V8.55942C311.943 8.42029 308.763 5.08116 308.763 1Z" fill="#F5F5F5"/>
<path d="M417.661 10.1998C417.661 10.1998 417.329 7.85566 416.307 6.82637C415.012 5.47168 413.564 5.46504 412.9 5.38535C408.145 5.04004 401.007 5.04004 401.007 5.04004H400.993C400.993 5.04004 393.855 5.04004 389.1 5.38535C388.436 5.46504 386.988 5.47168 385.693 6.82637C384.671 7.85566 384.345 10.1998 384.345 10.1998C384.345 10.1998 384 12.9557 384 15.7049V18.2814C384 21.0307 384.339 23.7865 384.339 23.7865C384.339 23.7865 384.671 26.1307 385.687 27.16C386.982 28.5146 388.682 28.4682 389.439 28.6143C392.161 28.8732 401 28.9529 401 28.9529C401 28.9529 408.145 28.9396 412.9 28.601C413.564 28.5213 415.012 28.5146 416.307 27.16C417.329 26.1307 417.661 23.7865 417.661 23.7865C417.661 23.7865 418 21.0373 418 18.2814V15.7049C418 12.9557 417.661 10.1998 417.661 10.1998ZM397.487 21.4092V11.8533L406.671 16.6479L397.487 21.4092Z" fill="#F5F5F5"/>
<path d="M16.0234 3.96026C20.3047 3.96026 20.8117 3.97952 22.4954 4.05658C24.0602 4.12722 24.9052 4.39691 25.4685 4.62166C26.2134 4.91705 26.7516 5.27665 27.3087 5.84815C27.872 6.42607 28.2163 6.97189 28.5042 7.73604C28.7233 8.31396 28.9862 9.18727 29.055 10.7862C29.1301 12.52 29.1489 13.0401 29.1489 17.4259C29.1489 21.8181 29.1301 22.3383 29.055 24.0656C28.9862 25.671 28.7233 26.5379 28.5042 27.1158C28.2163 27.8799 27.8658 28.4322 27.3087 29.0037C26.7454 29.5816 26.2134 29.9348 25.4685 30.2302C24.9052 30.4549 24.054 30.7246 22.4954 30.7952C20.8054 30.8723 20.2985 30.8916 16.0234 30.8916C11.7422 30.8916 11.2352 30.8723 9.55148 30.7952C7.98669 30.7246 7.1417 30.4549 6.57838 30.2302C5.83354 29.9348 5.29525 29.5752 4.73818 29.0037C4.17486 28.4258 3.83061 27.8799 3.54268 27.1158C3.32361 26.5379 3.06073 25.6646 2.99188 24.0656C2.91677 22.3319 2.89799 21.8117 2.89799 17.4259C2.89799 13.0337 2.91677 12.5135 2.99188 10.7862C3.06073 9.18085 3.32361 8.31396 3.54268 7.73604C3.83061 6.97189 4.18112 6.41965 4.73818 5.84815C5.30151 5.27022 5.83354 4.91705 6.57838 4.62166C7.1417 4.39691 7.99295 4.12722 9.55148 4.05658C11.2352 3.97952 11.7422 3.96026 16.0234 3.96026ZM16.0234 1C11.6733 1 11.1288 1.01926 9.42004 1.09632C7.71754 1.17338 6.54708 1.45592 5.5331 1.86047C4.4753 2.28428 3.58024 2.84294 2.69144 3.7612C1.79638 4.67303 1.25183 5.59129 0.838727 6.67009C0.4444 7.71677 0.168997 8.91115 0.0938874 10.6578C0.0187775 12.4172 0 12.9759 0 17.4388C0 21.9016 0.0187775 22.4603 0.0938874 24.2133C0.168997 25.9599 0.4444 27.1607 0.838727 28.201C1.25183 29.2862 1.79638 30.2045 2.69144 31.1163C3.58024 32.0282 4.4753 32.5932 5.52684 33.0106C6.54708 33.4152 7.71128 33.6977 9.41378 33.7748C11.1225 33.8518 11.6671 33.8711 16.0172 33.8711C20.3673 33.8711 20.9119 33.8518 22.6206 33.7748C24.3231 33.6977 25.4936 33.4152 26.5075 33.0106C27.5591 32.5932 28.4541 32.0282 29.3429 31.1163C30.2317 30.2045 30.7825 29.2862 31.1894 28.2074C31.5837 27.1607 31.8591 25.9664 31.9342 24.2197C32.0093 22.4667 32.0281 21.908 32.0281 17.4452C32.0281 12.9823 32.0093 12.4237 31.9342 10.6706C31.8591 8.92399 31.5837 7.72319 31.1894 6.68293C30.7951 5.59129 30.2505 4.67303 29.3555 3.7612C28.4667 2.84936 27.5716 2.28428 26.5201 1.86689C25.4998 1.46234 24.3356 1.1798 22.6331 1.10274C20.9181 1.01926 20.3736 1 16.0234 1Z" fill="#F5F5F5"/>
<path d="M16.0238 8.99414C11.4796 8.99414 7.79297 12.7763 7.79297 17.4383C7.79297 22.1002 11.4796 25.8824 16.0238 25.8824C20.5679 25.8824 24.2546 22.1002 24.2546 17.4383C24.2546 12.7763 20.5679 8.99414 16.0238 8.99414ZM16.0238 22.9157C13.0757 22.9157 10.6847 20.4627 10.6847 17.4383C10.6847 14.4138 13.0757 11.9608 16.0238 11.9608C18.9718 11.9608 21.3628 14.4138 21.3628 17.4383C21.3628 20.4627 18.9718 22.9157 16.0238 22.9157Z" fill="#F5F5F5"/>
<path d="M26.5013 8.66082C26.5013 9.75246 25.6376 10.6322 24.5798 10.6322C23.5157 10.6322 22.6582 9.74604 22.6582 8.66082C22.6582 7.56918 23.522 6.68945 24.5798 6.68945C25.6376 6.68945 26.5013 7.57561 26.5013 8.66082Z" fill="#F5F5F5"/>
</svg>
