<svg width="33" height="33" viewBox="0 0 33 33" fill="none" xmlns="http://www.w3.org/2000/svg">
<path d="M16.0234 2.96026C20.3047 2.96026 20.8117 2.97952 22.4954 3.05658C24.0602 3.12722 24.9052 3.39691 25.4685 3.62166C26.2134 3.91705 26.7516 4.27665 27.3087 4.84815C27.872 5.42607 28.2163 5.97189 28.5042 6.73604C28.7233 7.31396 28.9862 8.18727 29.055 9.7862C29.1301 11.52 29.1489 12.0401 29.1489 16.4259C29.1489 20.8181 29.1301 21.3383 29.055 23.0656C28.9862 24.671 28.7233 25.5379 28.5042 26.1158C28.2163 26.8799 27.8658 27.4322 27.3087 28.0037C26.7454 28.5816 26.2134 28.9348 25.4685 29.2302C24.9052 29.4549 24.054 29.7246 22.4954 29.7952C20.8054 29.8723 20.2985 29.8916 16.0234 29.8916C11.7422 29.8916 11.2352 29.8723 9.55148 29.7952C7.98669 29.7246 7.1417 29.4549 6.57838 29.2302C5.83354 28.9348 5.29525 28.5752 4.73818 28.0037C4.17486 27.4258 3.83061 26.8799 3.54268 26.1158C3.32361 25.5379 3.06073 24.6646 2.99188 23.0656C2.91677 21.3319 2.89799 20.8117 2.89799 16.4259C2.89799 12.0337 2.91677 11.5135 2.99188 9.7862C3.06073 8.18085 3.32361 7.31396 3.54268 6.73604C3.83061 5.97189 4.18112 5.41965 4.73818 4.84815C5.30151 4.27022 5.83354 3.91705 6.57838 3.62166C7.1417 3.39691 7.99295 3.12722 9.55148 3.05658C11.2352 2.97952 11.7422 2.96026 16.0234 2.96026ZM16.0234 0C11.6733 0 11.1288 0.0192642 9.42004 0.0963208C7.71754 0.173378 6.54708 0.455919 5.5331 0.860466C4.4753 1.28428 3.58024 1.84294 2.69144 2.7612C1.79638 3.67303 1.25183 4.59129 0.838727 5.67009C0.4444 6.71677 0.168997 7.91115 0.0938874 9.65777C0.0187775 11.4172 0 11.9759 0 16.4388C0 20.9016 0.0187775 21.4603 0.0938874 23.2133C0.168997 24.9599 0.4444 26.1607 0.838727 27.201C1.25183 28.2862 1.79638 29.2045 2.69144 30.1163C3.58024 31.0282 4.4753 31.5932 5.52684 32.0106C6.54708 32.4152 7.71128 32.6977 9.41378 32.7748C11.1225 32.8518 11.6671 32.8711 16.0172 32.8711C20.3673 32.8711 20.9119 32.8518 22.6206 32.7748C24.3231 32.6977 25.4936 32.4152 26.5075 32.0106C27.5591 31.5932 28.4541 31.0282 29.3429 30.1163C30.2317 29.2045 30.7825 28.2862 31.1894 27.2074C31.5837 26.1607 31.8591 24.9664 31.9342 23.2197C32.0093 21.4667 32.0281 20.908 32.0281 16.4452C32.0281 11.9823 32.0093 11.4237 31.9342 9.67061C31.8591 7.92399 31.5837 6.72319 31.1894 5.68293C30.7951 4.59129 30.2505 3.67303 29.3555 2.7612C28.4667 1.84936 27.5716 1.28428 26.5201 0.866887C25.4998 0.46234 24.3356 0.179799 22.6331 0.102742C20.9181 0.0192642 20.3736 0 16.0234 0Z" fill="#243352"/>
<path d="M16.0238 7.99414C11.4796 7.99414 7.79297 11.7763 7.79297 16.4383C7.79297 21.1002 11.4796 24.8824 16.0238 24.8824C20.5679 24.8824 24.2546 21.1002 24.2546 16.4383C24.2546 11.7763 20.5679 7.99414 16.0238 7.99414ZM16.0238 21.9157C13.0757 21.9157 10.6847 19.4627 10.6847 16.4383C10.6847 13.4138 13.0757 10.9608 16.0238 10.9608C18.9718 10.9608 21.3628 13.4138 21.3628 16.4383C21.3628 19.4627 18.9718 21.9157 16.0238 21.9157Z" fill="#243352"/>
<path d="M26.5013 7.66082C26.5013 8.75246 25.6376 9.63219 24.5798 9.63219C23.5157 9.63219 22.6582 8.74604 22.6582 7.66082C22.6582 6.56918 23.522 5.68945 24.5798 5.68945C25.6376 5.68945 26.5013 6.57561 26.5013 7.66082Z" fill="#243352"/>
</svg>
