<svg width="227" height="19" viewBox="0 0 227 19" fill="none" xmlns="http://www.w3.org/2000/svg">
<path d="M9.74219 2.32031C7.46094 2.32812 5.86328 3.05469 4.94922 4.5C4.03516 5.94531 3.57812 7.70312 3.57812 9.77344C3.57812 11.8438 4.15234 13.6016 5.30078 15.0469C6.45703 16.4844 7.9375 17.2109 9.74219 17.2266H9.80078C11.5586 17.2266 13.0117 16.4688 14.1602 14.9531C15.3164 13.4141 15.8945 11.7109 15.8945 9.84375V9.77344C15.8789 7.86719 15.3906 6.14844 14.4297 4.61719C13.4688 3.08594 11.9062 2.32031 9.74219 2.32031ZM9.74219 0.820312H9.85938C12.4688 0.820312 14.6719 1.62109 16.4688 3.22266C18.1328 4.71484 18.9648 6.67188 18.9648 9.09375C18.9648 9.3125 18.957 9.53125 18.9414 9.75C18.7773 12.4922 17.8164 14.625 16.0586 16.1484C14.3086 17.6719 12.1992 18.5039 9.73047 18.6445C9.55078 18.6523 9.36719 18.6562 9.17969 18.6562C6.92188 18.6562 4.92578 17.8789 3.19141 16.3242C1.42578 14.7461 0.542969 12.6914 0.542969 10.1602C0.542969 10.0195 0.546875 9.875 0.554688 9.72656C0.648438 7.01562 1.53516 4.86328 3.21484 3.26953C4.89453 1.66797 7.07031 0.851562 9.74219 0.820312Z" fill="#243352"/>
<path d="M33.8781 18.668C31.4016 18.668 29.2062 17.8789 27.2922 16.3008C25.3859 14.7227 24.4328 12.5508 24.4328 9.78516C24.4328 7.08984 25.3586 4.92578 27.2102 3.29297C29.0695 1.65234 31.2922 0.832031 33.8781 0.832031C34.8 0.832031 35.7805 0.9375 36.8195 1.14844C37.8664 1.35156 38.9055 1.78125 39.9367 2.4375L39.6437 5.03906C39.5812 5.3125 39.4055 5.44922 39.1164 5.44922H39.0695C38.8508 5.43359 38.6633 5.27344 38.507 4.96875C38.0227 3.9375 37.4289 3.25391 36.7258 2.91797C36.0227 2.58203 35.0734 2.41406 33.8781 2.41406C32.2219 2.41406 30.7414 2.99609 29.4367 4.16016C28.132 5.31641 27.4797 7.19141 27.4797 9.78516C27.4797 11.4414 28.093 13.0391 29.3195 14.5781C30.5461 16.1094 32.0695 16.918 33.8898 17.0039C34.0773 17.0117 34.2531 17.0156 34.4172 17.0156C35.3625 17.0156 36.1398 16.875 36.7492 16.5938C37.4367 16.2656 38.0227 15.582 38.507 14.543C38.6555 14.2617 38.8391 14.1016 39.0578 14.0625H39.1398C39.4289 14.0625 39.5969 14.2031 39.6437 14.4844L39.6789 14.8125L38.6125 17.8008C37.7609 18.1523 36.9367 18.3828 36.1398 18.4922C35.343 18.6094 34.5891 18.668 33.8781 18.668Z" fill="#243352"/>
<path d="M50.5492 16.6641H55.2602C55.8852 16.6641 56.432 16.4023 56.9008 15.8789C57.3773 15.3555 57.7445 14.9375 58.0023 14.625C58.2055 14.3828 58.3969 14.2617 58.5766 14.2617C58.9359 14.2617 59.1156 14.4219 59.1156 14.7422C59.1156 14.8594 59.1039 14.957 59.0805 15.0352L58.1781 18.2344H47.1742C46.8383 18.2344 46.6703 18.0742 46.6703 17.7539C46.6703 17.457 46.8656 17.2422 47.2562 17.1094C47.6469 16.9688 47.8422 16.6953 47.8422 16.2891V3.26953C47.8422 2.86328 47.6469 2.59375 47.2562 2.46094C46.8656 2.32031 46.6703 2.09766 46.6703 1.79297C46.6703 1.47266 46.85 1.3125 47.2094 1.3125H58.3773V4.55859C58.3773 4.87891 58.1977 5.03906 57.8383 5.03906C57.643 5.03906 57.4125 4.84375 57.1469 4.45312C56.7641 3.92188 56.4477 3.52734 56.1977 3.26953C55.9477 3.00391 55.6352 2.87109 55.2602 2.87109H50.5492V8.76562H52.9398C53.2992 8.76562 53.557 8.56641 53.7133 8.16797C53.8695 7.76172 54.1195 7.55859 54.4633 7.55859C54.8148 7.55859 54.9906 7.71875 54.9906 8.03906V11.0156C54.9906 11.3359 54.8148 11.4961 54.4633 11.4961C54.1273 11.4961 53.8695 11.2969 53.6898 10.8984C53.5102 10.5 53.2367 10.3008 52.8695 10.3008H50.5492V16.6641Z" fill="#243352"/>
<path d="M74.65 1.04297C75.0875 2.07422 75.5914 3.25781 76.1617 4.59375C76.7398 5.92969 77.3336 7.30469 77.943 8.71875C78.5602 10.1328 79.1539 11.5078 79.7242 12.8438C80.3023 14.1797 80.7906 15.3047 81.1891 16.2188C81.2906 16.4688 81.4898 16.6953 81.7867 16.8984C81.9508 17 82.1188 17.0898 82.2906 17.168C82.4703 17.2461 82.6227 17.3281 82.7477 17.4141C82.8648 17.5 82.943 17.5859 82.982 17.6719C83.0133 17.7266 83.0289 17.7852 83.0289 17.8477C83.0289 17.9023 83.0094 17.9648 82.9703 18.0352C82.9078 18.168 82.775 18.2344 82.5719 18.2344H78.6109C78.4703 18.2344 78.3375 18.1914 78.2125 18.1055C78.0797 18.0117 78.0016 17.9219 77.9781 17.8359C77.9547 17.7969 77.943 17.7461 77.943 17.6836C77.943 17.5508 78.0133 17.4258 78.1539 17.3086C78.232 17.2383 78.3141 17.1719 78.4 17.1094C78.4859 17.0391 78.5445 16.957 78.5758 16.8633C78.5914 16.8164 78.5992 16.7656 78.5992 16.7109C78.5992 16.6016 78.5719 16.4805 78.5172 16.3477L76.8531 12.5039H70.443C70.2086 13.0664 69.9508 13.6836 69.6695 14.3555C69.3961 15.0195 69.1188 15.6836 68.8375 16.3477C68.775 16.4883 68.7398 16.6133 68.732 16.7227C68.7242 16.7695 68.7203 16.8164 68.7203 16.8633C68.7203 16.9258 68.7281 16.9844 68.7438 17.0391C68.7672 17.1172 68.8023 17.1875 68.8492 17.25C68.9039 17.3125 68.9508 17.3984 68.9898 17.5078C68.9977 17.5859 69.0016 17.6406 69.0016 17.6719C69.0016 17.7266 68.9898 17.7773 68.9664 17.8242C68.8727 18.0977 68.693 18.2344 68.4273 18.2344H65.4039C65.2086 18.2344 65.0563 18.1523 64.9469 17.9883C64.9469 17.9727 64.9391 17.9492 64.9234 17.918C64.9234 17.8555 64.9352 17.7812 64.9586 17.6953C65.0367 17.5234 65.2164 17.375 65.4977 17.25C65.607 17.1953 65.7281 17.1367 65.8609 17.0742C65.9938 17.0117 66.1227 16.9375 66.2477 16.8516C66.4977 16.6719 66.6773 16.457 66.7867 16.207L73.5016 1.04297H74.65ZM76.2438 11.0859L73.5953 4.91016C73.2828 5.66797 72.8766 6.64062 72.3766 7.82812C71.8844 9.01562 71.4352 10.1016 71.0289 11.0859H76.2438Z" fill="#243352"/>
<path d="M103.848 14.8242V3.26953C103.848 2.87109 103.653 2.60156 103.262 2.46094C102.88 2.32031 102.688 2.09766 102.688 1.79297C102.688 1.47266 102.864 1.3125 103.216 1.3125H106.204C106.563 1.3125 106.743 1.47266 106.743 1.79297C106.743 2.09766 106.548 2.32031 106.157 2.46094C105.766 2.60156 105.571 2.87109 105.571 3.26953L105.559 18.8203L103.005 18.1992L92.2586 4.86328V16.2891C92.2586 16.6953 92.4539 16.9688 92.8445 17.1094C93.2352 17.2422 93.4305 17.457 93.4305 17.7539C93.4305 18.0742 93.2508 18.2344 92.8914 18.2344H89.9148C89.5555 18.2344 89.3758 18.0742 89.3758 17.7539C89.3758 17.457 89.5711 17.2422 89.9617 17.1094C90.3523 16.9688 90.5477 16.6953 90.5477 16.2891V3.26953C90.5477 2.87109 90.3523 2.60156 89.9617 2.46094C89.5711 2.32031 89.3758 2.09766 89.3758 1.79297C89.3758 1.47266 89.5555 1.3125 89.9148 1.3125H93.0906L103.848 14.8242Z" fill="#243352"/>
<path d="M133.347 18.668C130.87 18.668 128.675 17.8789 126.761 16.3008C124.855 14.7227 123.902 12.5508 123.902 9.78516C123.902 7.08984 124.827 4.92578 126.679 3.29297C128.538 1.65234 130.761 0.832031 133.347 0.832031C134.269 0.832031 135.249 0.9375 136.288 1.14844C137.335 1.35156 138.374 1.78125 139.405 2.4375L139.113 5.03906C139.05 5.3125 138.874 5.44922 138.585 5.44922H138.538C138.32 5.43359 138.132 5.27344 137.976 4.96875C137.491 3.9375 136.898 3.25391 136.195 2.91797C135.491 2.58203 134.542 2.41406 133.347 2.41406C131.691 2.41406 130.21 2.99609 128.905 4.16016C127.601 5.31641 126.948 7.19141 126.948 9.78516C126.948 11.4414 127.562 13.0391 128.788 14.5781C130.015 16.1094 131.538 16.918 133.359 17.0039C133.546 17.0117 133.722 17.0156 133.886 17.0156C134.73 17.0156 135.437 16.9062 136.007 16.6875C136.671 16.4297 137.226 15.9141 137.671 15.1406V12.9844C137.663 12.8281 137.581 12.707 137.425 12.6211C137.23 12.5117 136.902 12.3633 136.441 12.1758C135.988 11.9883 135.761 11.7656 135.761 11.5078C135.761 11.1875 135.941 11.0273 136.3 11.0273H140.999C141.359 11.0273 141.538 11.1875 141.538 11.5078C141.538 11.8125 141.343 12.0352 140.952 12.1758C140.562 12.3164 140.366 12.5859 140.366 12.9844V17.7656C138.999 17.8281 137.769 17.9961 136.675 18.2695C136.097 18.4258 135.527 18.5312 134.964 18.5859C134.402 18.6406 133.863 18.668 133.347 18.668Z" fill="#243352"/>
<path d="M161.573 17.0156C161.721 17.1406 161.94 17.2148 162.229 17.2383C162.62 17.2852 162.815 17.4453 162.815 17.7188V17.7656C162.768 18.0781 162.588 18.2344 162.276 18.2344H159.147C158.967 18.2344 158.631 17.9102 158.139 17.2617C157.647 16.6133 157.096 15.8672 156.487 15.0234C155.877 14.1797 155.252 13.3164 154.612 12.4336C153.979 11.5508 153.475 10.8789 153.1 10.418H151.682V16.2891C151.682 16.6953 151.877 16.9688 152.268 17.1094C152.659 17.2422 152.854 17.457 152.854 17.7539C152.854 18.0742 152.678 18.2344 152.327 18.2344H148.354C147.995 18.2344 147.815 18.0742 147.815 17.7539C147.815 17.457 148.01 17.2422 148.401 17.1094C148.791 16.9688 148.987 16.6953 148.987 16.2891V3.26953C148.987 2.87109 148.791 2.60156 148.401 2.46094C148.01 2.32031 147.815 2.09766 147.815 1.79297C147.815 1.47266 147.995 1.3125 148.354 1.3125H155.268C156.112 1.3125 156.995 1.46484 157.916 1.76953C158.846 2.06641 159.569 2.65625 160.084 3.53906C160.475 4.23438 160.67 5.0625 160.67 6.02344C160.655 6.94531 160.389 7.77734 159.873 8.51953C159.452 9.11328 158.87 9.56641 158.127 9.87891C157.393 10.1914 156.85 10.3555 156.498 10.3711L161.573 17.0156ZM151.682 2.75391V9.12891H154.108C154.616 9.12891 155.123 9.05859 155.631 8.91797C156.147 8.76953 156.588 8.51172 156.955 8.14453C157.534 7.58984 157.823 6.84375 157.823 5.90625C157.823 5.00781 157.522 4.26172 156.92 3.66797C156.288 3.05859 155.428 2.75391 154.342 2.75391H151.682Z" fill="#243352"/>
<path d="M177.4 1.04297C177.837 2.07422 178.341 3.25781 178.912 4.59375C179.49 5.92969 180.084 7.30469 180.693 8.71875C181.31 10.1328 181.904 11.5078 182.474 12.8438C183.052 14.1797 183.541 15.3047 183.939 16.2188C184.041 16.4688 184.24 16.6953 184.537 16.8984C184.701 17 184.869 17.0898 185.041 17.168C185.22 17.2461 185.373 17.3281 185.498 17.4141C185.615 17.5 185.693 17.5859 185.732 17.6719C185.763 17.7266 185.779 17.7852 185.779 17.8477C185.779 17.9023 185.759 17.9648 185.72 18.0352C185.658 18.168 185.525 18.2344 185.322 18.2344H181.361C181.22 18.2344 181.087 18.1914 180.962 18.1055C180.83 18.0117 180.752 17.9219 180.728 17.8359C180.705 17.7969 180.693 17.7461 180.693 17.6836C180.693 17.5508 180.763 17.4258 180.904 17.3086C180.982 17.2383 181.064 17.1719 181.15 17.1094C181.236 17.0391 181.295 16.957 181.326 16.8633C181.341 16.8164 181.349 16.7656 181.349 16.7109C181.349 16.6016 181.322 16.4805 181.267 16.3477L179.603 12.5039H173.193C172.959 13.0664 172.701 13.6836 172.42 14.3555C172.146 15.0195 171.869 15.6836 171.587 16.3477C171.525 16.4883 171.49 16.6133 171.482 16.7227C171.474 16.7695 171.47 16.8164 171.47 16.8633C171.47 16.9258 171.478 16.9844 171.494 17.0391C171.517 17.1172 171.552 17.1875 171.599 17.25C171.654 17.3125 171.701 17.3984 171.74 17.5078C171.748 17.5859 171.752 17.6406 171.752 17.6719C171.752 17.7266 171.74 17.7773 171.716 17.8242C171.623 18.0977 171.443 18.2344 171.177 18.2344H168.154C167.959 18.2344 167.806 18.1523 167.697 17.9883C167.697 17.9727 167.689 17.9492 167.673 17.918C167.673 17.8555 167.685 17.7812 167.709 17.6953C167.787 17.5234 167.966 17.375 168.248 17.25C168.357 17.1953 168.478 17.1367 168.611 17.0742C168.744 17.0117 168.873 16.9375 168.998 16.8516C169.248 16.6719 169.427 16.457 169.537 16.207L176.252 1.04297H177.4ZM178.994 11.0859L176.345 4.91016C176.033 5.66797 175.627 6.64062 175.127 7.82812C174.634 9.01562 174.185 10.1016 173.779 11.0859H178.994Z" fill="#243352"/>
<path d="M200.786 18.668C198.309 18.668 196.114 17.8789 194.2 16.3008C192.294 14.7227 191.341 12.5508 191.341 9.78516C191.341 7.08984 192.266 4.92578 194.118 3.29297C195.977 1.65234 198.2 0.832031 200.786 0.832031C201.708 0.832031 202.688 0.9375 203.727 1.14844C204.774 1.35156 205.813 1.78125 206.845 2.4375L206.552 5.03906C206.489 5.3125 206.313 5.44922 206.024 5.44922H205.977C205.759 5.43359 205.571 5.27344 205.415 4.96875C204.93 3.9375 204.337 3.25391 203.634 2.91797C202.93 2.58203 201.981 2.41406 200.786 2.41406C199.13 2.41406 197.649 2.99609 196.345 4.16016C195.04 5.31641 194.387 7.19141 194.387 9.78516C194.387 11.4414 195.001 13.0391 196.227 14.5781C197.454 16.1094 198.977 16.918 200.798 17.0039C200.985 17.0117 201.161 17.0156 201.325 17.0156C202.27 17.0156 203.048 16.875 203.657 16.5938C204.345 16.2656 204.93 15.582 205.415 14.543C205.563 14.2617 205.747 14.1016 205.966 14.0625H206.048C206.337 14.0625 206.505 14.2031 206.552 14.4844L206.587 14.8125L205.52 17.8008C204.669 18.1523 203.845 18.3828 203.048 18.4922C202.251 18.6094 201.497 18.668 200.786 18.668Z" fill="#243352"/>
<path d="M217.457 16.6641H222.168C222.793 16.6641 223.34 16.4023 223.809 15.8789C224.285 15.3555 224.652 14.9375 224.91 14.625C225.113 14.3828 225.305 14.2617 225.484 14.2617C225.844 14.2617 226.023 14.4219 226.023 14.7422C226.023 14.8594 226.012 14.957 225.988 15.0352L225.086 18.2344H214.082C213.746 18.2344 213.578 18.0742 213.578 17.7539C213.578 17.457 213.773 17.2422 214.164 17.1094C214.555 16.9688 214.75 16.6953 214.75 16.2891V3.26953C214.75 2.86328 214.555 2.59375 214.164 2.46094C213.773 2.32031 213.578 2.09766 213.578 1.79297C213.578 1.47266 213.758 1.3125 214.117 1.3125H225.285V4.55859C225.285 4.87891 225.105 5.03906 224.746 5.03906C224.551 5.03906 224.32 4.84375 224.055 4.45312C223.672 3.92188 223.355 3.52734 223.105 3.26953C222.855 3.00391 222.543 2.87109 222.168 2.87109H217.457V8.76562H219.848C220.207 8.76562 220.465 8.56641 220.621 8.16797C220.777 7.76172 221.027 7.55859 221.371 7.55859C221.723 7.55859 221.898 7.71875 221.898 8.03906V11.0156C221.898 11.3359 221.723 11.4961 221.371 11.4961C221.035 11.4961 220.777 11.2969 220.598 10.8984C220.418 10.5 220.145 10.3008 219.777 10.3008H217.457V16.6641Z" fill="#243352"/>
</svg>
