<svg width="34" height="34" viewBox="0 0 34 34" fill="none" xmlns="http://www.w3.org/2000/svg">
<path d="M33.6613 10.1998C33.6613 10.1998 33.3293 7.85566 32.3066 6.82637C31.0117 5.47168 29.5641 5.46504 28.9 5.38535C24.1453 5.04004 17.0066 5.04004 17.0066 5.04004H16.9934C16.9934 5.04004 9.85469 5.04004 5.1 5.38535C4.43594 5.46504 2.98828 5.47168 1.69336 6.82637C0.670703 7.85566 0.345312 10.1998 0.345312 10.1998C0.345312 10.1998 0 12.9557 0 15.7049V18.2814C0 21.0307 0.338672 23.7865 0.338672 23.7865C0.338672 23.7865 0.670703 26.1307 1.68672 27.16C2.98164 28.5146 4.68164 28.4682 5.43867 28.6143C8.16133 28.8732 17 28.9529 17 28.9529C17 28.9529 24.1453 28.9396 28.9 28.601C29.5641 28.5213 31.0117 28.5146 32.3066 27.16C33.3293 26.1307 33.6613 23.7865 33.6613 23.7865C33.6613 23.7865 34 21.0373 34 18.2814V15.7049C34 12.9557 33.6613 10.1998 33.6613 10.1998ZM13.4871 21.4092V11.8533L22.6711 16.6479L13.4871 21.4092Z" fill="#F5F5F5"/>
</svg>
