<svg width="27" height="33" viewBox="0 0 27 33" fill="none" xmlns="http://www.w3.org/2000/svg">
<path d="M13.5 0.0138551C11.7067 -0.0684356 9.91559 0.216524 8.24133 0.850493C6.56707 1.48446 5.04655 2.45347 3.7771 3.69549C2.50765 4.93751 1.51724 6.42518 0.869275 8.06327C0.221306 9.70135 -0.0699469 11.4538 0.014161 13.2083C0.014161 17.3646 3.38562 21.4548 5.07135 23.1042C6.75708 24.7535 13.5 33 13.5 33C13.5 33 20.2429 24.7535 21.9286 23.1042C23.6144 21.4548 26.9858 17.3646 26.9858 13.2083C27.0699 11.4538 26.7787 9.70135 26.1307 8.06327C25.4828 6.42518 24.4923 4.93751 23.2229 3.69549C21.9534 2.45347 20.4329 1.48446 18.7587 0.850493C17.0844 0.216524 15.2933 -0.0684356 13.5 0.0138551ZM13.5 18.5686C12.4164 18.5686 11.3572 18.2542 10.4562 17.6652C9.55529 17.0762 8.85308 16.239 8.43841 15.2596C8.02375 14.2801 7.91525 13.2024 8.12665 12.1626C8.33804 11.1228 8.85983 10.1677 9.62603 9.41805C10.3922 8.6684 11.3684 8.15789 12.4312 7.95106C13.4939 7.74423 14.5955 7.85038 15.5966 8.25609C16.5977 8.66179 17.4533 9.34883 18.0553 10.2303C18.6573 11.1118 18.9786 12.1482 18.9786 13.2083C18.9786 13.9122 18.8369 14.6093 18.5616 15.2596C18.2863 15.9099 17.8827 16.5008 17.374 16.9986C16.8652 17.4963 16.2613 17.8912 15.5966 18.1605C14.9319 18.4299 14.2195 18.5686 13.5 18.5686Z" fill="#F5F5F5"/>
</svg>
